# xmcd
#
# Track frame offsets:
#	150
#	14748
#	29638
#	43930
#	58136
#	72892
#	87783
#	101079
#	118669
#	133542
#	146636
#	161188
#
# Disc length: 2353 seconds
#
# Revision: 0
# Processed by: cddbd v1.5.2PL0 Copyright (c) Steve Scherf et al.
# Submitted via: EasyCDDAExtractor 16.0.6.1
#
DISCID=b5092f0c
DTITLE=Βέμπο Σοφία-Γούναρης Νίκος - Δυό αξέχαστε φωνές
DYEAR=1900
DGENRE=Ελαφρά
TTITLE0=Βέμπο Σοφία-Γούναρης Νίκος - Τα δικά σου μάτια [Σπυρόπουλου-Παπαδούκα-
TTITLE0=Κ. Γιαννίδη]
TTITLE1=Γούναρης Νίκος-Βέμπο Σοφία - Μαρί [Ν. Φατσέα-Γ. Μυρογιάννη]
TTITLE2=Βέμπο Σοφία - Χωριάτα [Γ. Φτέρη-Θ. Σακελλαρίδη]
TTITLE3=Γούναρης Νίκος-χορωδία - Ντούτσε, Ντούτσε [Γ. Οικονομίδη-Αλ. Σακελλαρί
TTITLE3=ου-Θ. Σακελλαρίδη]
TTITLE4=Βέμπο Σοφία - Κάποιο μυστικό [Σπυρόπουλου-Παπαδούκα-Κ.Γιαννίδη]
TTITLE5=Γούναρης Νίκος-χορωδία - Στο παζάρι [Ζοζέφ Κορίνθιου]
TTITLE6=Γούναρης Νίκος-χορωδία - Στην Ρώμη (Κορόϊδο Μουσολίνι)[Γ.Οκονομίδη-Π.Μ
TTITLE6=ενεστρέλ-E.DiLazzaro]
TTITLE7=Βέμπο Σοφία - Μπλουμ μπλουμ και πλίτσι πλίτσι [Μ. Τραϊφόρου-Κύρου]
TTITLE8=Γούναρης Νίκος - Μην αργήσεις [1940, ταγκό, Ν. Ευελπίδη-Ζ. Κορίνθιου]
TTITLE9=Βέμπο Σοφία - Μαριώ [Μ. Λαουτάρη-Σ. Χαρίου-Θ. Παπαδόπουλου]
TTITLE10=Γούναρης Νίκος - Όμορφη Αθήνα [Αιμ. Σαββίδη-Ν. Γούναρη]
TTITLE11=Βέμπο Σοφία - Να με παίρνανε τα σύννεφα [Μ. Τραϊφόρου-Λεό Π. Ραπίτη]
EXTD=
EXTT0=
EXTT1=
EXTT2=
EXTT3=
EXTT4=
EXTT5=
EXTT6=
EXTT7=
EXTT8=
EXTT9=
EXTT10=
EXTT11=
PLAYORDER=
